<?xml version="1.0" standalone="no"?>
<!DOCTYPE svg PUBLIC "-//W3C//DTD SVG 20010904//EN"
 "http://www.w3.org/TR/2001/REC-SVG-20010904/DTD/svg10.dtd">
<svg version="1.0" xmlns="http://www.w3.org/2000/svg"
 width="700.000000pt" height="700.000000pt" viewBox="0 0 700.000000 700.000000"
 preserveAspectRatio="xMidYMid meet">
<metadata>
Created by potrace 1.11, written by Peter Selinger 2001-2013
</metadata>
<g transform="translate(0.000000,700.000000) scale(0.100000,-0.100000)"
fill="#000000" stroke="none">
<path d="M1103 6115 c-58 -14 -86 -28 -130 -68 -73 -66 -101 -148 -97 -277 11
-339 30 -542 79 -820 23 -130 86 -408 104 -460 5 -14 17 -52 26 -85 47 -162
129 -385 218 -585 47 -107 179 -372 197 -395 4 -5 24 -41 45 -80 101 -187 343
-526 544 -760 94 -111 373 -392 465 -470 33 -28 71 -60 85 -73 49 -44 258
-204 363 -279 79 -55 325 -213 333 -213 3 0 22 -11 43 -23 115 -73 419 -220
617 -299 270 -107 663 -223 890 -262 61 -10 151 -26 170 -30 11 -2 45 -7 76
-10 31 -4 65 -8 75 -10 11 -2 51 -7 89 -11 39 -4 86 -8 105 -10 68 -8 306 -18
401 -18 82 0 103 3 150 26 71 33 115 77 147 147 l25 55 1 570 0 570 -26 55
c-26 57 -90 130 -113 130 -7 0 -18 6 -24 14 -15 18 -65 28 -161 31 -121 5
-301 16 -319 20 -9 1 -45 6 -81 10 -143 15 -416 77 -625 143 -16 5 -56 8 -87
6 -112 -5 -132 -20 -499 -387 l-336 -335 -79 42 c-623 333 -1181 837 -1568
1416 -42 63 -80 120 -84 125 -11 14 -93 156 -146 254 l-46 83 336 337 c240
240 343 350 362 386 36 70 36 170 0 280 -24 71 -53 175 -63 223 -2 9 -8 37
-14 62 -13 58 -41 230 -47 295 -3 28 -7 61 -10 75 -2 14 -6 93 -10 175 -7 204
-16 248 -62 315 -30 44 -51 62 -106 90 l-68 35 -549 0 c-360 0 -565 -3 -596
-10z"/>
</g>
</svg>
